<svg xmlns="http://www.w3.org/2000/svg" width="1200" height="600" viewBox="0 0 1200 600" role="img" aria-labelledby="title desc">
  <title id="title">Peta Lokasi Jayapura</title>
  <desc id="desc">Ilustrasi sederhana lokasi sekolah di Kota Jayapura.</desc>
  <defs>
    <linearGradient id="sea" x1="0" y1="0" x2="0" y2="1">
      <stop offset="0%" stop-color="#9fd6ee" />
      <stop offset="100%" stop-color="#7ec4e0" />
    </linearGradient>
    <linearGradient id="land" x1="0" y1="0" x2="1" y2="1">
      <stop offset="0%" stop-color="#93c47d" />
      <stop offset="100%" stop-color="#6ea768" />
    </linearGradient>
  </defs>

  <rect width="1200" height="600" fill="url(#sea)" />

  <path
    d="M50 470 C130 420, 220 430, 320 390 C450 340, 520 250, 640 260 C760 270, 820 360, 930 365 C1030 370, 1110 320, 1180 280 L1180 600 L50 600 Z"
    fill="url(#land)"
    opacity="0.95"
  />

  <path
    d="M80 370 C180 320, 260 335, 360 300 C420 280, 500 220, 620 225 C730 230, 820 290, 900 295 C980 300, 1080 260, 1180 210"
    fill="none"
    stroke="#f8fafc"
    stroke-width="8"
    stroke-linecap="round"
    opacity="0.7"
  />

  <path
    d="M110 410 C220 360, 300 380, 420 335 C520 300, 610 255, 710 270 C790 282, 860 325, 960 328"
    fill="none"
    stroke="#e5edf4"
    stroke-width="5"
    stroke-linecap="round"
    opacity="0.7"
  />

  <g transform="translate(760 280)">
    <path d="M0 -60 C33 -60 60 -33 60 0 C60 40 15 81 0 100 C-15 81 -60 40 -60 0 C-60 -33 -33 -60 0 -60 Z" fill="#ef4444" />
    <circle cx="0" cy="-2" r="22" fill="#ffffff" />
    <circle cx="0" cy="-2" r="11" fill="#ef4444" />
  </g>

  <rect x="28" y="28" width="370" height="74" rx="16" fill="#ffffff" opacity="0.9" />
  <text x="52" y="74" fill="#16345f" font-family="Poppins, Arial, sans-serif" font-size="34" font-weight="700">
    Kota Jayapura, Papua
  </text>
</svg>
